<mxfile host="app.diagrams.net" modified="2023-09-13T08:58:38.358Z" agent="Mozilla/5.0 (Windows NT 10.0; Win64; x64) AppleWebKit/537.36 (KHTML, like Gecko) Chrome/116.0.0.0 Safari/537.36" etag="7kOHfd2ZhWtnQP0RM5NK" version="21.7.2" type="github">
  <diagram name="Page-1" id="edf60f1a-56cd-e834-aa8a-f176f3a09ee4">
    <mxGraphModel dx="844" dy="733" grid="1" gridSize="10" guides="1" tooltips="1" connect="1" arrows="1" fold="1" page="1" pageScale="1" pageWidth="1100" pageHeight="850" background="none" math="0" shadow="0">
      <root>
        <mxCell id="0" />
        <mxCell id="1" parent="0" />
        <mxCell id="ctV-6dknb3ha7PF7_fPe-1" value="信贷核心&lt;br&gt;借据信息存储和管理、分期计划和息费计算机交易流水管理&lt;br&gt;借据、分期、交易流水" style="rounded=0;whiteSpace=wrap;html=1;verticalAlign=top;align=left;" vertex="1" parent="1">
          <mxGeometry x="90" y="60" width="150" height="90" as="geometry" />
        </mxCell>
        <mxCell id="ctV-6dknb3ha7PF7_fPe-2" value="分发路由&lt;br&gt;资金资产匹配，包盈利性、承接率、均衡度和合规政策" style="rounded=0;whiteSpace=wrap;html=1;verticalAlign=top;align=left;" vertex="1" parent="1">
          <mxGeometry x="270" y="60" width="150" height="90" as="geometry" />
        </mxCell>
        <mxCell id="ctV-6dknb3ha7PF7_fPe-3" value="产品管理及定价系统&lt;br&gt;八项息费：&lt;br&gt;定价因子" style="rounded=0;whiteSpace=wrap;html=1;verticalAlign=top;align=left;" vertex="1" parent="1">
          <mxGeometry x="380" y="200" width="120" height="60" as="geometry" />
        </mxCell>
        <mxCell id="ctV-6dknb3ha7PF7_fPe-4" value="客户经营系统" style="rounded=0;whiteSpace=wrap;html=1;verticalAlign=top;align=left;" vertex="1" parent="1">
          <mxGeometry x="660" y="200" width="120" height="60" as="geometry" />
        </mxCell>
        <mxCell id="ctV-6dknb3ha7PF7_fPe-5" value="客户数据资产系统" style="rounded=0;whiteSpace=wrap;html=1;verticalAlign=top;align=left;" vertex="1" parent="1">
          <mxGeometry x="520" y="200" width="120" height="60" as="geometry" />
        </mxCell>
        <mxCell id="ctV-6dknb3ha7PF7_fPe-6" value="业务数据分析系统" style="rounded=0;whiteSpace=wrap;html=1;verticalAlign=top;align=left;" vertex="1" parent="1">
          <mxGeometry x="240" y="270" width="120" height="60" as="geometry" />
        </mxCell>
        <mxCell id="ctV-6dknb3ha7PF7_fPe-7" value="营销权益系统" style="rounded=0;whiteSpace=wrap;html=1;verticalAlign=top;align=left;" vertex="1" parent="1">
          <mxGeometry x="380" y="270" width="120" height="60" as="geometry" />
        </mxCell>
        <mxCell id="ctV-6dknb3ha7PF7_fPe-8" value="界面配置系统" style="rounded=0;whiteSpace=wrap;html=1;verticalAlign=top;align=left;" vertex="1" parent="1">
          <mxGeometry x="520" y="270" width="120" height="60" as="geometry" />
        </mxCell>
        <mxCell id="ctV-6dknb3ha7PF7_fPe-9" value="小流量配置试验系统" style="rounded=0;whiteSpace=wrap;html=1;verticalAlign=top;align=left;" vertex="1" parent="1">
          <mxGeometry x="660" y="270" width="120" height="60" as="geometry" />
        </mxCell>
        <mxCell id="ctV-6dknb3ha7PF7_fPe-11" value="助贷CRM管理" style="rounded=0;whiteSpace=wrap;html=1;verticalAlign=top;align=left;" vertex="1" parent="1">
          <mxGeometry x="90" y="270" width="120" height="60" as="geometry" />
        </mxCell>
        <mxCell id="ctV-6dknb3ha7PF7_fPe-12" value="风控系统" style="rounded=0;whiteSpace=wrap;html=1;verticalAlign=top;align=left;" vertex="1" parent="1">
          <mxGeometry x="90" y="340" width="120" height="60" as="geometry" />
        </mxCell>
      </root>
    </mxGraphModel>
  </diagram>
</mxfile>
